<?xml version="1.0" standalone="no"?>
<!DOCTYPE svg PUBLIC "-//W3C//DTD SVG 20010904//EN"
 "http://www.w3.org/TR/2001/REC-SVG-20010904/DTD/svg10.dtd">
<svg version="1.0" xmlns="http://www.w3.org/2000/svg"
 width="300.000000pt" height="300.000000pt" viewBox="0 0 300.000000 300.000000"
 preserveAspectRatio="xMidYMid meet">
<metadata>
Created by potrace 1.10, written by Peter Selinger 2001-2011
</metadata>
<g transform="translate(0.000000,300.000000) scale(0.100000,-0.100000)"
fill="#000000" stroke="none">
<path d="M585 1949 c-7 -10 -1 -61 11 -101 3 -10 12 -18 20 -18 11 0 13 6 9
20 -4 12 -2 20 5 20 7 0 14 -9 17 -20 3 -11 12 -20 20 -20 10 0 6 12 -16 42
-17 23 -31 46 -31 50 0 15 57 -20 83 -52 27 -31 74 -43 63 -15 -3 8 -9 22 -12
30 -3 8 -1 15 5 15 6 0 11 -3 11 -7 0 -5 9 -19 20 -33 l20 -25 -11 33 c-11 32
-61 77 -73 65 -3 -3 -6 -15 -6 -25 0 -23 -9 -23 -34 2 -30 28 -93 52 -101 39z"/>
<path d="M922 1903 c-17 -8 -32 -19 -32 -24 0 -5 -4 -9 -10 -9 -5 0 -10 7 -10
15 0 22 -27 19 -40 -4 -16 -30 -12 -47 6 -25 12 15 15 16 10 2 -8 -28 18 -26
46 4 33 36 57 38 34 3 -21 -31 -20 -35 5 -35 30 0 18 -24 -14 -27 -15 -1 -29
3 -33 9 -4 7 -10 5 -16 -3 -7 -11 -11 -11 -15 -1 -3 8 -31 12 -96 10 -84 -1
-87 -2 -37 -8 60 -7 65 -6 -72 -13 -49 -3 -57 3 -73 62 -7 22 -11 23 -57 18
-51 -6 -82 -22 -72 -38 6 -10 54 -1 68 12 20 18 34 7 55 -43 12 -28 20 -52 19
-53 -2 -1 -42 -7 -91 -14 -80 -12 -108 -23 -93 -38 3 -3 25 -1 49 5 24 7 66
14 93 18 47 5 51 4 62 -21 7 -15 11 -29 9 -31 -2 -2 -26 -6 -53 -9 -58 -6
-145 -23 -152 -30 -15 -15 17 -15 95 -1 119 22 120 22 138 -20 8 -20 15 -38
15 -40 0 -2 -17 -4 -37 -4 -80 0 -143 -12 -143 -28 0 -11 8 -13 33 -8 110 19
123 19 141 -9 18 -28 18 -29 -44 -39 -37 -7 -124 -45 -117 -52 2 -3 37 3 78
12 103 23 347 28 419 9 30 -8 56 -12 58 -10 7 7 -48 26 -110 38 -53 10 -57 12
-43 27 8 9 15 22 15 28 0 7 7 12 15 12 8 0 15 4 15 8 0 12 -87 35 -101 27 -14
-9 -97 -10 -121 -1 -10 3 -25 8 -33 11 -8 2 -15 10 -15 16 0 9 34 10 135 6
155 -8 141 -16 171 101 18 70 18 74 1 86 -12 10 -15 21 -11 42 3 16 2 39 -3
51 -8 21 -9 21 -41 6z m-182 -127 c0 -18 -37 -27 -50 -12 -13 16 -3 26 27 26
13 0 23 -6 23 -14z m98 -3 c2 -9 -9 -13 -37 -13 -39 0 -57 10 -44 24 12 11 76
2 81 -11z m-168 -6 c0 -9 -12 -14 -30 -15 -20 0 -30 4 -30 14 0 9 11 14 30 14
18 0 30 -5 30 -13z m238 1 c-3 -7 -15 -13 -28 -13 -13 0 -25 6 -27 13 -3 8 6
12 27 12 21 0 30 -4 28 -12z m52 -3 c0 -8 -9 -15 -20 -15 -11 0 -20 7 -20 15
0 8 9 15 20 15 11 0 20 -7 20 -15z m-212 -42 c2 -8 -6 -13 -22 -13 -25 0 -33
10 -19 24 10 10 36 3 41 -11z m90 0 c2 -9 -9 -13 -37 -13 -39 0 -50 8 -34 24
11 11 66 2 71 -11z m-153 -3 c3 -5 0 -10 -9 -10 -8 0 -21 -3 -30 -6 -11 -4
-16 -1 -16 10 0 18 45 23 55 6z m213 -1 c-2 -6 -7 -10 -11 -10 -4 1 -14 1 -22
1 -8 0 -15 5 -15 10 0 6 12 10 26 10 14 0 24 -5 22 -11z m-198 -54 c0 -9 -9
-15 -25 -15 -16 0 -25 6 -25 15 0 9 9 15 25 15 16 0 25 -6 25 -15z m53 0 c-4
-15 -36 -12 -41 3 -3 9 3 13 19 10 13 -1 23 -7 22 -13z m82 0 c0 -5 -15 -11
-32 -13 -25 -3 -33 1 -33 13 0 12 8 16 33 13 17 -2 32 -7 32 -13z m55 0 c0 -8
-9 -15 -20 -15 -11 0 -20 7 -20 15 0 8 9 15 20 15 11 0 20 -7 20 -15z m-174
-106 c8 -14 -21 -43 -35 -35 -19 12 -13 46 8 46 11 0 23 -5 27 -11z m168 2 c9
-14 -4 -41 -19 -41 -18 0 -28 17 -21 35 6 17 32 20 40 6z m-60 -31 l14 -30
-65 0 c-63 0 -65 1 -50 18 10 10 17 24 17 30 0 7 15 12 34 12 28 0 37 -5 50
-30z"/>
<path d="M475 1790 c-7 -12 19 -12 55 0 22 7 21 8 -12 9 -20 1 -40 -3 -43 -9z"/>
<path d="M1510 1760 c0 -15 7 -20 25 -20 18 0 25 5 25 20 0 15 -7 20 -25 20
-18 0 -25 -5 -25 -20z"/>
<path d="M1607 1762 c-10 -10 -17 -26 -17 -35 0 -9 -4 -17 -10 -17 -5 0 -10
-7 -10 -15 0 -8 5 -15 10 -15 6 0 10 -25 10 -55 0 -52 1 -55 25 -55 24 0 25 3
25 55 0 54 0 55 30 55 29 0 30 -1 30 -49 0 -52 8 -61 56 -61 15 0 24 6 24 15
0 8 -6 15 -14 15 -16 0 -26 21 -26 56 0 17 6 24 20 24 11 0 20 7 20 15 0 8 -6
15 -14 15 -9 0 -16 12 -18 27 -5 41 -36 43 -44 4 -6 -26 -11 -31 -35 -31 -31
0 -39 17 -14 26 8 4 15 15 15 25 0 25 -41 26 -63 1z"/>
<path d="M1120 1763 c-28 -11 -50 -36 -50 -59 0 -27 29 -49 78 -59 18 -4 31
-12 29 -18 -6 -18 -39 -21 -51 -6 -6 8 -21 15 -33 17 -17 2 -23 -2 -23 -17 0
-63 150 -68 166 -5 9 36 -11 60 -61 73 -44 11 -58 27 -32 37 7 2 27 -2 43 -11
38 -20 44 -19 44 5 0 33 -67 59 -110 43z"/>
<path d="M1845 1761 c-35 -15 -49 -40 -49 -93 -1 -43 3 -53 27 -74 48 -41 127
-26 146 27 9 27 8 29 -15 29 -15 0 -34 -10 -44 -22 -29 -35 -55 -14 -55 43 0
41 2 44 28 47 18 2 29 -2 33 -12 4 -9 18 -16 34 -16 23 0 27 4 23 19 -11 44
-81 72 -128 52z"/>
<path d="M2305 1755 c-3 -8 -7 -22 -10 -31 -3 -10 -11 -13 -25 -9 -12 4 -28 1
-36 -6 -11 -9 -18 -9 -26 -1 -29 29 -38 13 -38 -63 0 -73 1 -75 25 -75 23 0
25 4 25 44 0 48 1 50 43 60 26 6 27 5 27 -37 0 -50 13 -67 52 -67 21 0 28 5
28 20 0 11 -7 20 -15 20 -10 0 -15 11 -15 35 0 24 5 35 15 35 8 0 15 7 15 15
0 8 -7 15 -15 15 -10 0 -15 10 -15 30 0 32 -26 43 -35 15z"/>
<path d="M1250 1711 c0 -3 10 -35 22 -73 20 -62 24 -68 49 -68 24 0 28 5 34
40 9 51 21 51 30 -1 6 -36 10 -40 33 -37 23 3 30 12 49 63 28 77 28 87 1 83
-18 -2 -24 -12 -31 -46 -10 -50 -22 -48 -31 7 -5 36 -9 39 -33 37 -24 -3 -29
-9 -36 -45 -10 -49 -22 -46 -31 8 -5 34 -9 39 -31 37 -14 0 -25 -3 -25 -5z"/>
<path d="M2024 1711 c-22 -10 -39 -29 -32 -36 2 -2 19 0 38 4 38 8 60 5 60
-10 0 -5 -12 -9 -28 -9 -15 0 -38 -7 -50 -16 -40 -27 -22 -74 28 -74 14 0 31
5 38 12 9 9 15 9 24 0 17 -17 58 -15 58 2 0 8 -4 18 -10 21 -5 3 -10 23 -10
44 0 21 -6 44 -14 50 -19 16 -76 23 -102 12z m64 -88 c-4 -23 -48 -31 -48 -10
0 9 6 18 13 20 25 11 38 7 35 -10z"/>
<path d="M1510 1640 c0 -68 1 -70 25 -70 24 0 25 2 25 70 0 68 -1 70 -25 70
-24 0 -25 -2 -25 -70z"/>
<path d="M490 1690 c-20 -6 -21 -8 -5 -8 11 -1 38 3 60 7 l40 9 -35 0 c-19 0
-46 -4 -60 -8z"/>
<path d="M528 1613 c-16 -2 -28 -9 -28 -14 0 -9 62 -3 110 12 21 6 18 7 -15 7
-22 -1 -52 -3 -67 -5z"/>
</g>
</svg>
